<svg xmlns="http://www.w3.org/2000/svg" xmlns:xlink="http://www.w3.org/1999/xlink" width="500" zoomAndPan="magnify" viewBox="0 0 375 74.999997" height="100" preserveAspectRatio="xMidYMid meet" version="1.0"><defs><g/></defs><g fill="#2de2e6" fill-opacity="1"><g transform="translate(0.891883, 53.624995)"><g><path d="M 23.59375 -5.40625 L 11.84375 -5.40625 L 10.0625 0 L 0.375 0 L 12.453125 -33.140625 L 23.078125 -33.140625 L 35.109375 0 L 25.375 0 Z M 21.296875 -12.453125 L 17.71875 -23.171875 L 14.1875 -12.453125 Z M 21.296875 -12.453125 "/></g></g></g><g fill="#2de2e6" fill-opacity="1"><g transform="translate(37.310934, 53.624995)"><g><path d="M 27.59375 -33.140625 L 27.59375 -25.796875 L 18.75 -25.796875 L 18.75 0 L 9.546875 0 L 9.546875 -25.796875 L 0.796875 -25.796875 L 0.796875 -33.140625 Z M 27.59375 -33.140625 "/></g></g></g><g fill="#2de2e6" fill-opacity="1"><g transform="translate(66.63418, 53.624995)"><g><path d="M 18.515625 0.328125 C 15.410156 0.328125 12.554688 -0.398438 9.953125 -1.859375 C 7.359375 -3.316406 5.300781 -5.335938 3.78125 -7.921875 C 2.257812 -10.503906 1.5 -13.425781 1.5 -16.6875 C 1.5 -19.945312 2.257812 -22.867188 3.78125 -25.453125 C 5.300781 -28.035156 7.359375 -30.046875 9.953125 -31.484375 C 12.554688 -32.929688 15.410156 -33.65625 18.515625 -33.65625 C 21.648438 -33.65625 24.507812 -32.929688 27.09375 -31.484375 C 29.675781 -30.046875 31.71875 -28.035156 33.21875 -25.453125 C 34.726562 -22.867188 35.484375 -19.945312 35.484375 -16.6875 C 35.484375 -13.425781 34.726562 -10.503906 33.21875 -7.921875 C 31.71875 -5.335938 29.664062 -3.316406 27.0625 -1.859375 C 24.46875 -0.398438 21.617188 0.328125 18.515625 0.328125 Z M 18.515625 -8.21875 C 20.867188 -8.21875 22.722656 -8.984375 24.078125 -10.515625 C 25.441406 -12.054688 26.125 -14.113281 26.125 -16.6875 C 26.125 -19.320312 25.441406 -21.394531 24.078125 -22.90625 C 22.722656 -24.425781 20.867188 -25.1875 18.515625 -25.1875 C 16.140625 -25.1875 14.273438 -24.425781 12.921875 -22.90625 C 11.578125 -21.394531 10.90625 -19.320312 10.90625 -16.6875 C 10.90625 -14.082031 11.578125 -12.019531 12.921875 -10.5 C 14.273438 -8.976562 16.140625 -8.21875 18.515625 -8.21875 Z M 18.515625 -8.21875 "/></g></g></g><g fill="#2de2e6" fill-opacity="1"><g transform="translate(104.556967, 53.624995)"><g><path d="M 41.3125 -33.140625 L 41.3125 0 L 32.09375 0 L 32.09375 -18.28125 L 25.84375 0 L 18.140625 0 L 11.84375 -18.421875 L 11.84375 0 L 2.625 0 L 2.625 -33.140625 L 13.765625 -33.140625 L 22.09375 -11.609375 L 30.21875 -33.140625 Z M 41.3125 -33.140625 "/></g></g></g><g fill="#2de2e6" fill-opacity="1"><g transform="translate(149.434603, 53.624995)"><g><path d="M 11.84375 -33.140625 L 11.84375 0 L 2.625 0 L 2.625 -33.140625 Z M 11.84375 -33.140625 "/></g></g></g><g fill="#2de2e6" fill-opacity="1"><g transform="translate(164.848169, 53.624995)"><g><path d="M 1.5 -16.640625 C 1.5 -19.898438 2.179688 -22.804688 3.546875 -25.359375 C 4.910156 -27.910156 6.84375 -29.898438 9.34375 -31.328125 C 11.851562 -32.753906 14.738281 -33.46875 18 -33.46875 C 22.132812 -33.46875 25.613281 -32.363281 28.4375 -30.15625 C 31.257812 -27.945312 33.078125 -24.945312 33.890625 -21.15625 L 23.96875 -21.15625 C 23.375 -22.40625 22.550781 -23.359375 21.5 -24.015625 C 20.445312 -24.671875 19.234375 -25 17.859375 -25 C 15.722656 -25 14.019531 -24.238281 12.75 -22.71875 C 11.488281 -21.195312 10.859375 -19.171875 10.859375 -16.640625 C 10.859375 -14.066406 11.488281 -12.019531 12.75 -10.5 C 14.019531 -8.976562 15.722656 -8.21875 17.859375 -8.21875 C 19.234375 -8.21875 20.445312 -8.546875 21.5 -9.203125 C 22.550781 -9.867188 23.375 -10.828125 23.96875 -12.078125 L 33.890625 -12.078125 C 33.078125 -8.285156 31.257812 -5.285156 28.4375 -3.078125 C 25.613281 -0.867188 22.132812 0.234375 18 0.234375 C 14.738281 0.234375 11.851562 -0.476562 9.34375 -1.90625 C 6.84375 -3.332031 4.910156 -5.320312 3.546875 -7.875 C 2.179688 -10.425781 1.5 -13.347656 1.5 -16.640625 Z M 1.5 -16.640625 "/></g></g></g><g fill="#2de2e6" fill-opacity="1"><g transform="translate(201.408194, 53.624995)"><g/></g></g><g fill="#2de2e6" fill-opacity="1"><g transform="translate(211.323697, 53.624995)"><g><path d="M 33.328125 0 L 24.109375 0 L 11.84375 -18.515625 L 11.84375 0 L 2.625 0 L 2.625 -33.140625 L 11.84375 -33.140625 L 24.109375 -14.375 L 24.109375 -33.140625 L 33.328125 -33.140625 Z M 33.328125 0 "/></g></g></g><g fill="#2de2e6" fill-opacity="1"><g transform="translate(248.212671, 53.624995)"><g><path d="M 11.84375 -25.75 L 11.84375 -20.34375 L 22.421875 -20.34375 L 22.421875 -13.34375 L 11.84375 -13.34375 L 11.84375 -7.375 L 23.828125 -7.375 L 23.828125 0 L 2.625 0 L 2.625 -33.140625 L 23.828125 -33.140625 L 23.828125 -25.75 Z M 11.84375 -25.75 "/></g></g></g><g fill="#2de2e6" fill-opacity="1"><g transform="translate(274.904343, 53.624995)"><g><path d="M 23.359375 0 L 16.921875 -9.359375 L 11.421875 0 L 0.9375 0 L 11.703125 -16.96875 L 0.5625 -33.140625 L 11.421875 -33.140625 L 17.671875 -24.015625 L 23.03125 -33.140625 L 33.515625 -33.140625 L 22.890625 -16.453125 L 34.21875 0 Z M 23.359375 0 "/></g></g></g><g fill="#2de2e6" fill-opacity="1"><g transform="translate(310.571523, 53.624995)"><g><path d="M 11.65625 -33.140625 L 11.65625 -13.90625 C 11.65625 -12.125 12.066406 -10.742188 12.890625 -9.765625 C 13.722656 -8.796875 14.988281 -8.3125 16.6875 -8.3125 C 18.375 -8.3125 19.648438 -8.804688 20.515625 -9.796875 C 21.378906 -10.785156 21.8125 -12.15625 21.8125 -13.90625 L 21.8125 -33.140625 L 31.015625 -33.140625 L 31.015625 -13.90625 C 31.015625 -10.875 30.375 -8.28125 29.09375 -6.125 C 27.8125 -3.976562 26.0625 -2.363281 23.84375 -1.28125 C 21.632812 -0.207031 19.1875 0.328125 16.5 0.328125 C 13.800781 0.328125 11.394531 -0.207031 9.28125 -1.28125 C 7.164062 -2.363281 5.503906 -3.972656 4.296875 -6.109375 C 3.085938 -8.242188 2.484375 -10.84375 2.484375 -13.90625 L 2.484375 -33.140625 Z M 11.65625 -33.140625 "/></g></g></g><g fill="#2de2e6" fill-opacity="1"><g transform="translate(344.969919, 53.624995)"><g><path d="M 15.140625 0.328125 C 11.285156 0.328125 8.117188 -0.585938 5.640625 -2.421875 C 3.160156 -4.253906 1.828125 -6.878906 1.640625 -10.296875 L 11.46875 -10.296875 C 11.5625 -9.128906 11.90625 -8.28125 12.5 -7.75 C 13.09375 -7.21875 13.863281 -6.953125 14.8125 -6.953125 C 15.65625 -6.953125 16.347656 -7.160156 16.890625 -7.578125 C 17.441406 -8.003906 17.71875 -8.597656 17.71875 -9.359375 C 17.71875 -10.328125 17.265625 -11.078125 16.359375 -11.609375 C 15.453125 -12.140625 13.976562 -12.734375 11.9375 -13.390625 C 9.769531 -14.109375 8.019531 -14.804688 6.6875 -15.484375 C 5.363281 -16.160156 4.207031 -17.144531 3.21875 -18.4375 C 2.226562 -19.738281 1.734375 -21.441406 1.734375 -23.546875 C 1.734375 -25.679688 2.265625 -27.503906 3.328125 -29.015625 C 4.398438 -30.535156 5.875 -31.6875 7.75 -32.46875 C 9.632812 -33.257812 11.765625 -33.65625 14.140625 -33.65625 C 17.992188 -33.65625 21.070312 -32.753906 23.375 -30.953125 C 25.6875 -29.148438 26.921875 -26.617188 27.078125 -23.359375 L 17.0625 -23.359375 C 17.03125 -24.359375 16.722656 -25.109375 16.140625 -25.609375 C 15.566406 -26.109375 14.820312 -26.359375 13.90625 -26.359375 C 13.21875 -26.359375 12.65625 -26.15625 12.21875 -25.75 C 11.78125 -25.34375 11.5625 -24.765625 11.5625 -24.015625 C 11.5625 -23.390625 11.800781 -22.847656 12.28125 -22.390625 C 12.769531 -21.941406 13.375 -21.550781 14.09375 -21.21875 C 14.820312 -20.894531 15.890625 -20.476562 17.296875 -19.96875 C 19.390625 -19.25 21.117188 -18.535156 22.484375 -17.828125 C 23.847656 -17.128906 25.023438 -16.144531 26.015625 -14.875 C 27.003906 -13.601562 27.5 -12 27.5 -10.0625 C 27.5 -8.082031 27.003906 -6.304688 26.015625 -4.734375 C 25.023438 -3.171875 23.597656 -1.9375 21.734375 -1.03125 C 19.867188 -0.125 17.671875 0.328125 15.140625 0.328125 Z M 15.140625 0.328125 "/></g></g></g></svg>