<svg xmlns="http://www.w3.org/2000/svg" xmlns:xlink="http://www.w3.org/1999/xlink" width="500" zoomAndPan="magnify" viewBox="0 0 375 74.999997" height="100" preserveAspectRatio="xMidYMid meet" version="1.0"><defs><g/></defs><g fill="#2de2e6" fill-opacity="1"><g transform="translate(0.736415, 50.999995)"><g><path d="M 11.21875 -32.671875 L 23.984375 -32.671875 L 34.78125 0 L 26.5 0 L 24.40625 -6.171875 L 10.84375 -6.171875 L 8.78125 0 L 0.46875 0 Z M 13.0625 -12.859375 L 22.171875 -12.859375 L 17.59375 -26.375 Z M 13.0625 -12.859375 "/></g></g></g><g fill="#2de2e6" fill-opacity="1"><g transform="translate(36.73041, 50.999995)"><g><path d="M 0.46875 -32.671875 L 29.65625 -32.671875 L 29.65625 -26 L 19.03125 -26 L 19.03125 0 L 11.046875 0 L 11.046875 -26 L 0.46875 -26 Z M 0.46875 -32.671875 "/></g></g></g><g fill="#2de2e6" fill-opacity="1"><g transform="translate(67.600404, 50.999995)"><g><path d="M 7.015625 -32.671875 L 26.84375 -32.671875 C 27.675781 -32.671875 28.445312 -32.460938 29.15625 -32.046875 C 29.875 -31.628906 30.441406 -31.0625 30.859375 -30.34375 C 31.285156 -29.632812 31.5 -28.859375 31.5 -28.015625 L 31.5 -4.65625 C 31.5 -3.820312 31.285156 -3.050781 30.859375 -2.34375 C 30.441406 -1.644531 29.875 -1.078125 29.15625 -0.640625 C 28.445312 -0.210938 27.675781 0 26.84375 0 L 7.015625 0 C 6.171875 0 5.398438 -0.210938 4.703125 -0.640625 C 4.003906 -1.078125 3.4375 -1.644531 3 -2.34375 C 2.570312 -3.050781 2.359375 -3.820312 2.359375 -4.65625 L 2.359375 -28.015625 C 2.359375 -28.859375 2.570312 -29.632812 3 -30.34375 C 3.4375 -31.0625 4.003906 -31.628906 4.703125 -32.046875 C 5.398438 -32.460938 6.171875 -32.671875 7.015625 -32.671875 Z M 11.421875 -26 C 11.085938 -26 10.804688 -25.894531 10.578125 -25.6875 C 10.359375 -25.476562 10.25 -25.203125 10.25 -24.859375 L 10.25 -7.8125 C 10.25 -7.476562 10.359375 -7.203125 10.578125 -6.984375 C 10.804688 -6.773438 11.085938 -6.671875 11.421875 -6.671875 L 22.390625 -6.671875 C 22.722656 -6.671875 23 -6.773438 23.21875 -6.984375 C 23.445312 -7.203125 23.5625 -7.476562 23.5625 -7.8125 L 23.5625 -24.859375 C 23.5625 -25.203125 23.445312 -25.476562 23.21875 -25.6875 C 23 -25.894531 22.722656 -26 22.390625 -26 Z M 11.421875 -26 "/></g></g></g><g fill="#2de2e6" fill-opacity="1"><g transform="translate(102.208399, 50.999995)"><g><path d="M 2.359375 -32.671875 L 10.25 -32.671875 L 19.484375 -13.78125 L 28.6875 -32.671875 L 36.625 -32.671875 L 36.625 0 L 28.6875 0 L 28.6875 -19.984375 L 21.46875 -4.65625 L 17.515625 -4.65625 L 10.25 -19.984375 L 10.25 0 L 2.359375 0 Z M 2.359375 -32.671875 "/></g></g></g><g fill="#2de2e6" fill-opacity="1"><g transform="translate(141.940383, 50.999995)"><g><path d="M 2.359375 -32.671875 L 10.25 -32.671875 L 10.25 0 L 2.359375 0 Z M 2.359375 -32.671875 "/></g></g></g><g fill="#2de2e6" fill-opacity="1"><g transform="translate(155.380392, 50.999995)"><g><path d="M 7.015625 -32.671875 L 26.84375 -32.671875 C 28.15625 -32.671875 29.257812 -32.222656 30.15625 -31.328125 C 31.050781 -30.429688 31.5 -29.328125 31.5 -28.015625 L 31.5 -22.71875 L 23.5625 -22.71875 L 23.5625 -24.859375 C 23.5625 -25.203125 23.445312 -25.476562 23.21875 -25.6875 C 23 -25.894531 22.722656 -26 22.390625 -26 L 11.421875 -26 C 11.085938 -26 10.804688 -25.894531 10.578125 -25.6875 C 10.359375 -25.476562 10.25 -25.203125 10.25 -24.859375 L 10.25 -7.8125 C 10.25 -7.476562 10.359375 -7.203125 10.578125 -6.984375 C 10.804688 -6.773438 11.085938 -6.671875 11.421875 -6.671875 L 22.390625 -6.671875 C 22.722656 -6.671875 23 -6.773438 23.21875 -6.984375 C 23.445312 -7.203125 23.5625 -7.476562 23.5625 -7.8125 L 23.5625 -9.953125 L 31.5 -9.953125 L 31.5 -4.65625 C 31.5 -3.375 31.050781 -2.273438 30.15625 -1.359375 C 29.257812 -0.453125 28.15625 0 26.84375 0 L 7.015625 0 C 5.722656 0 4.625 -0.453125 3.71875 -1.359375 C 2.8125 -2.273438 2.359375 -3.375 2.359375 -4.65625 L 2.359375 -28.015625 C 2.359375 -29.328125 2.8125 -30.429688 3.71875 -31.328125 C 4.625 -32.222656 5.722656 -32.671875 7.015625 -32.671875 Z M 7.015625 -32.671875 "/></g></g></g><g fill="#2de2e6" fill-opacity="1"><g transform="translate(203.848383, 50.999995)"><g><path d="M 2.359375 -32.671875 L 10.25 -32.671875 L 23.5625 -12.890625 L 23.5625 -32.671875 L 31.5 -32.671875 L 31.5 0 L 23.5625 0 L 10.25 -19.78125 L 10.25 0 L 2.359375 0 Z M 2.359375 -32.671875 "/></g></g></g><g fill="#2de2e6" fill-opacity="1"><g transform="translate(238.456389, 50.999995)"><g><path d="M 2.359375 -32.671875 L 29.40625 -32.671875 L 29.40625 -26 L 10.25 -26 L 10.25 -19.703125 L 24.734375 -19.703125 L 24.734375 -12.984375 L 10.25 -12.984375 L 10.25 -6.671875 L 29.40625 -6.671875 L 29.40625 0 L 2.359375 0 Z M 2.359375 -32.671875 "/></g></g></g><g fill="#2de2e6" fill-opacity="1"><g transform="translate(269.872386, 50.999995)"><g><path d="M 0.46875 -32.671875 L 10.25 -32.671875 L 17.59375 -21.421875 L 24.953125 -32.671875 L 34.78125 -32.671875 L 22.515625 -16.34375 L 34.78125 0 L 24.953125 0 L 17.59375 -11.25 L 10.25 0 L 0.46875 0 L 12.6875 -16.34375 Z M 0.46875 -32.671875 "/></g></g></g><g fill="#2de2e6" fill-opacity="1"><g transform="translate(305.866387, 50.999995)"><g><path d="M 2.359375 -32.671875 L 10.25 -32.671875 L 10.25 -7.8125 C 10.25 -7.476562 10.359375 -7.203125 10.578125 -6.984375 C 10.804688 -6.773438 11.085938 -6.671875 11.421875 -6.671875 L 22.390625 -6.671875 C 22.722656 -6.671875 23 -6.773438 23.21875 -6.984375 C 23.445312 -7.203125 23.5625 -7.476562 23.5625 -7.8125 L 23.5625 -32.671875 L 31.5 -32.671875 L 31.5 -4.65625 C 31.5 -3.820312 31.285156 -3.050781 30.859375 -2.34375 C 30.441406 -1.644531 29.875 -1.078125 29.15625 -0.640625 C 28.445312 -0.210938 27.675781 0 26.84375 0 L 7.015625 0 C 6.171875 0 5.398438 -0.210938 4.703125 -0.640625 C 4.003906 -1.078125 3.4375 -1.644531 3 -2.34375 C 2.570312 -3.050781 2.359375 -3.820312 2.359375 -4.65625 Z M 2.359375 -32.671875 "/></g></g></g><g fill="#2de2e6" fill-opacity="1"><g transform="translate(340.474393, 50.999995)"><g><path d="M 7.015625 -32.671875 L 30.578125 -32.671875 L 30.578125 -26 L 11.421875 -26 C 11.140625 -26 10.875 -25.882812 10.625 -25.65625 C 10.375 -25.4375 10.25 -25.171875 10.25 -24.859375 L 10.25 -20.875 C 10.25 -20.59375 10.375 -20.328125 10.625 -20.078125 C 10.875 -19.828125 11.140625 -19.703125 11.421875 -19.703125 L 26.84375 -19.703125 C 28.15625 -19.703125 29.257812 -19.253906 30.15625 -18.359375 C 31.050781 -17.460938 31.5 -16.351562 31.5 -15.03125 L 31.5 -4.65625 C 31.5 -3.375 31.050781 -2.273438 30.15625 -1.359375 C 29.257812 -0.453125 28.15625 0 26.84375 0 L 3.28125 0 L 3.28125 -6.671875 L 22.390625 -6.671875 C 22.691406 -6.671875 22.960938 -6.789062 23.203125 -7.03125 C 23.441406 -7.269531 23.5625 -7.53125 23.5625 -7.8125 L 23.5625 -11.796875 C 23.5625 -12.109375 23.441406 -12.382812 23.203125 -12.625 C 22.960938 -12.863281 22.691406 -12.984375 22.390625 -12.984375 L 7.015625 -12.984375 C 5.722656 -12.984375 4.625 -13.4375 3.71875 -14.34375 C 2.8125 -15.25 2.359375 -16.347656 2.359375 -17.640625 L 2.359375 -28.015625 C 2.359375 -29.328125 2.8125 -30.429688 3.71875 -31.328125 C 4.625 -32.222656 5.722656 -32.671875 7.015625 -32.671875 Z M 7.015625 -32.671875 "/></g></g></g></svg>